<?xml version="1.0" encoding="utf-8"?>
<svg id="splitsvg" version="1.1" width="1380" height="400" xmlns="http://www.w3.org/2000/svg" xmlns:bx="https://boxy-svg.com">
  <defs>
    <filter id="gaussian-blur-filter-0" color-interpolation-filters="sRGB" x="-500%" y="-500%" width="1000%" height="1000%" bx:preset="gaussian-blur 1 20">
      <feGaussianBlur stdDeviation="20 20" edgeMode="none"/>
    </filter>
  </defs>
  <g id="svgg">
    <path id="path0" d="M 196.438 53.38 C 196.655 53.584 197.151 53.75 197.539 53.75 C 197.927 53.75 198.357 54.043 198.494 54.401 C 198.632 54.76 198.937 54.934 199.172 54.788 C 199.408 54.642 199.881 55.193 200.223 56.012 C 200.565 56.83 201.103 57.5 201.418 57.5 C 201.805 57.5 202.301 58.863 202.937 61.667 C 203.526 64.263 204.081 65.833 204.411 65.833 C 204.911 65.833 205.565 67.656 206.691 72.188 C 206.962 73.28 207.425 74.167 207.723 74.167 C 208.03 74.167 208.454 75.025 208.701 76.146 C 209.633 80.374 210.761 83.815 211.372 84.293 C 211.723 84.567 212.516 86.901 213.134 89.479 C 213.834 92.396 214.458 94.167 214.787 94.167 C 215.092 94.167 215.611 95.354 216.016 96.979 C 217.336 102.282 217.971 104.149 218.421 104.054 C 218.799 103.974 219.732 107.064 221.003 112.604 C 221.148 113.234 221.502 113.75 221.79 113.75 C 222.102 113.75 222.8 115.523 223.512 118.125 C 224.171 120.531 224.931 122.5 225.201 122.5 C 225.486 122.5 226.182 124.599 226.858 127.5 C 227.541 130.432 228.228 132.5 228.519 132.5 C 229.021 132.5 229.904 135.002 230.871 139.167 C 231.164 140.427 231.709 141.74 232.082 142.083 C 232.454 142.427 233.086 143.786 233.484 145.104 C 234.301 147.805 234.349 147.823 238.495 147.057 C 240.287 146.725 241.042 146.738 241.485 147.105 C 241.94 147.483 242.863 147.482 245.474 147.1 C 248.13 146.712 248.938 146.714 249.183 147.11 C 249.428 147.506 250.238 147.5 252.917 147.083 C 255.269 146.717 256.422 146.687 256.606 146.986 C 256.792 147.285 258.213 147.259 261.185 146.902 C 264.475 146.507 265.539 146.5 265.682 146.874 C 265.824 147.244 266.745 147.215 269.443 146.759 C 272.298 146.276 273.082 146.26 273.341 146.678 C 273.595 147.089 274.413 147.107 277.14 146.758 C 279.551 146.451 280.698 146.448 280.884 146.749 C 281.069 147.048 282.284 147.016 284.778 146.645 C 286.966 146.319 288.513 146.258 288.681 146.49 C 289.108 147.082 290.279 147.069 293.911 146.43 C 296.389 145.994 297.324 145.966 297.543 146.319 C 297.758 146.668 298.763 146.684 301.314 146.38 C 303.878 146.075 304.868 146.092 305.081 146.446 C 305.297 146.804 306.344 146.781 309.247 146.353 C 312.095 145.933 313.323 145.903 313.871 146.238 C 314.281 146.489 314.75 146.617 314.913 146.523 C 315.671 146.082 321.398 145.816 321.642 146.211 C 321.821 146.5 322.831 146.484 324.782 146.16 C 326.981 145.796 327.697 145.8 327.822 146.175 C 327.912 146.446 328.633 146.667 329.423 146.667 C 330.339 146.667 330.95 146.902 331.109 147.316 C 331.245 147.673 331.625 147.862 331.952 147.736 C 332.342 147.587 332.696 147.937 332.981 148.754 C 333.219 149.439 333.648 150 333.933 150 C 334.218 150 334.669 150.725 334.934 151.611 C 335.527 153.589 335.565 156.25 335 156.25 C 334.771 156.25 334.583 156.886 334.583 157.664 C 334.583 158.577 334.347 159.168 333.915 159.334 C 333.548 159.475 333.35 159.859 333.476 160.187 C 333.631 160.591 333.242 160.936 332.269 161.257 C 331.476 161.519 330.833 162.013 330.833 162.36 C 330.833 162.706 330.271 163.201 329.583 163.461 C 328.896 163.72 328.333 164.15 328.333 164.416 C 328.333 164.682 327.771 165.132 327.083 165.417 C 326.396 165.701 325.833 166.175 325.833 166.468 C 325.833 166.762 325.271 167.198 324.583 167.438 C 323.896 167.677 323.333 168.137 323.333 168.46 C 323.333 168.782 322.724 169.226 321.979 169.445 C 321.122 169.697 320.645 170.094 320.679 170.525 C 320.714 170.963 320.288 171.304 319.483 171.48 C 318.757 171.64 318.146 172.086 318.026 172.544 C 317.912 172.978 317.567 173.333 317.257 173.333 C 316.948 173.333 316.12 173.896 315.417 174.583 C 314.713 175.271 313.863 175.833 313.527 175.833 C 313.191 175.833 312.917 176.181 312.917 176.606 C 312.917 177.117 312.457 177.518 311.563 177.787 C 310.818 178.011 310.254 178.411 310.311 178.675 C 310.367 178.94 309.758 179.431 308.957 179.765 C 308.156 180.1 307.5 180.65 307.5 180.987 C 307.5 181.33 306.948 181.722 306.25 181.875 C 305.413 182.059 305 182.403 305 182.917 C 305 183.43 304.587 183.775 303.75 183.958 C 303.051 184.112 302.5 184.503 302.5 184.846 C 302.5 185.184 301.956 185.65 301.292 185.881 C 300.627 186.113 299.989 186.666 299.872 187.11 C 299.756 187.553 299.363 187.917 298.997 187.917 C 298.632 187.917 298.333 188.182 298.333 188.507 C 298.333 188.832 297.506 189.414 296.496 189.799 C 295.426 190.208 294.572 190.832 294.452 191.292 C 294.338 191.727 293.926 192.083 293.536 192.083 C 293.092 192.083 292.913 192.306 293.057 192.68 C 293.213 193.088 292.892 193.364 292.045 193.55 C 291.363 193.7 290.513 194.268 290.157 194.812 C 289.8 195.356 289.151 195.915 288.713 196.053 C 288.275 196.192 287.917 196.548 287.917 196.843 C 287.917 197.138 287.307 197.559 286.563 197.778 C 285.705 198.031 285.228 198.427 285.263 198.858 C 285.297 199.296 284.871 199.637 284.066 199.814 C 283.36 199.969 282.729 200.42 282.616 200.851 C 282.506 201.271 281.873 201.804 281.208 202.035 C 280.544 202.267 280 202.733 280 203.07 C 280 203.413 279.449 203.805 278.75 203.958 C 277.913 204.142 277.5 204.486 277.5 205 C 277.5 205.514 277.087 205.858 276.25 206.042 C 275.563 206.193 275 206.58 275 206.903 C 275 207.225 274.341 207.764 273.535 208.101 C 272.73 208.437 272.121 208.94 272.181 209.218 C 272.242 209.496 271.682 209.906 270.938 210.13 C 270.193 210.354 269.583 210.787 269.583 211.091 C 269.583 211.396 269.044 211.924 268.384 212.266 C 267.724 212.607 267.081 213.156 266.954 213.487 C 266.827 213.818 266.159 214.212 265.469 214.364 C 264.717 214.529 264.293 214.845 264.411 215.153 C 264.522 215.442 263.954 215.979 263.115 216.379 C 262.294 216.771 261.728 217.262 261.857 217.47 C 261.986 217.679 261.418 218.072 260.595 218.343 C 259.372 218.747 259.136 219.001 259.305 219.731 C 259.419 220.223 259.751 221.73 260.044 223.081 C 260.396 224.704 260.809 225.597 261.264 225.716 C 261.772 225.849 262.258 227.274 263.124 231.177 C 263.857 234.483 264.564 236.692 265.014 237.083 C 265.426 237.441 266.219 239.666 266.872 242.292 C 267.498 244.813 268.356 247.253 268.777 247.714 C 269.233 248.213 270.008 250.622 270.688 253.652 C 271.337 256.546 272.038 258.75 272.31 258.75 C 272.798 258.75 273.915 262.237 275.28 268.018 C 275.711 269.844 276.261 271.246 276.546 271.248 C 277.088 271.25 277.364 272.131 278.799 278.438 C 279.368 280.94 279.925 282.5 280.249 282.5 C 280.786 282.5 281.492 284.568 282.76 289.856 C 283.192 291.658 283.66 292.765 283.942 292.657 C 284.237 292.544 284.909 294.626 285.772 298.322 C 286.745 302.493 287.307 304.167 287.735 304.167 C 288.092 304.167 288.333 304.577 288.333 305.184 C 288.333 305.743 288.489 306.297 288.68 306.415 C 289.216 306.746 290.151 312.562 289.717 312.863 C 289.509 313.007 289.3 313.681 289.25 314.36 C 289.201 315.039 288.881 315.752 288.539 315.943 C 288.197 316.135 287.917 316.543 287.917 316.851 C 287.917 317.159 287.635 317.519 287.292 317.651 C 286.948 317.783 286.667 318.159 286.667 318.488 C 286.667 319.22 284.742 319.925 281.797 320.271 C 280.268 320.451 279.583 320.385 279.583 320.057 C 279.583 319.797 278.972 319.583 278.225 319.583 C 277.31 319.583 276.694 319.306 276.337 318.734 C 276.045 318.267 275.644 317.984 275.447 318.106 C 275.249 318.229 274.98 318.048 274.848 317.706 C 274.717 317.364 274.315 317.083 273.955 317.083 C 273.595 317.083 272.566 316.356 271.669 315.468 C 270.771 314.579 269.948 313.941 269.839 314.05 C 269.73 314.159 269.395 313.855 269.095 313.374 C 268.795 312.893 268.22 312.5 267.816 312.5 C 267.413 312.5 267.083 312.199 267.083 311.83 C 267.083 311.399 266.855 311.248 266.443 311.407 C 266.078 311.547 265.7 311.386 265.565 311.035 C 265.434 310.695 264.973 310.417 264.539 310.417 C 264.105 310.417 263.75 310.135 263.75 309.792 C 263.75 309.441 263.378 309.167 262.904 309.167 C 262.438 309.167 261.949 308.885 261.817 308.542 C 261.685 308.198 261.31 307.917 260.984 307.917 C 260.658 307.917 260.283 307.635 260.151 307.292 C 260.019 306.948 259.556 306.667 259.122 306.667 C 258.688 306.667 258.333 306.479 258.333 306.25 C 258.333 306.021 258.046 305.833 257.695 305.833 C 257.344 305.833 256.949 305.552 256.817 305.208 C 256.685 304.865 256.223 304.583 255.789 304.583 C 255.355 304.583 255 304.302 255 303.958 C 255 303.611 254.63 303.333 254.167 303.333 C 253.708 303.333 253.333 303.141 253.333 302.906 C 253.333 302.672 252.865 302.301 252.292 302.083 C 251.719 301.866 251.25 301.495 251.25 301.26 C 251.25 301.025 250.875 300.833 250.417 300.833 C 249.929 300.833 249.583 300.556 249.583 300.164 C 249.583 299.722 249.357 299.581 248.92 299.749 C 248.475 299.919 248.183 299.724 248.035 299.157 C 247.877 298.553 247.589 298.381 247.032 298.558 C 246.494 298.729 246.25 298.602 246.25 298.153 C 246.25 297.778 245.896 297.5 245.417 297.5 C 244.954 297.5 244.583 297.222 244.583 296.875 C 244.583 296.525 244.212 296.25 243.737 296.25 C 243.271 296.25 242.783 295.969 242.651 295.625 C 242.519 295.281 242.144 295 241.817 295 C 241.491 295 241.116 294.719 240.984 294.375 C 240.852 294.031 240.389 293.75 239.955 293.75 C 239.522 293.75 239.167 293.469 239.167 293.125 C 239.167 292.778 238.796 292.5 238.333 292.5 C 237.875 292.5 237.5 292.313 237.5 292.083 C 237.5 291.854 237.125 291.667 236.667 291.667 C 236.204 291.667 235.833 291.389 235.833 291.042 C 235.833 290.694 235.463 290.417 235 290.417 C 234.537 290.417 234.167 290.139 234.167 289.792 C 234.167 289.448 233.812 289.167 233.378 289.167 C 232.944 289.167 232.481 288.885 232.349 288.542 C 232.217 288.198 231.729 287.917 231.263 287.917 C 230.788 287.917 230.417 287.642 230.417 287.292 C 230.417 286.948 230.062 286.667 229.628 286.667 C 229.194 286.667 228.731 286.385 228.599 286.042 C 228.467 285.698 228.092 285.417 227.766 285.417 C 227.44 285.417 227.066 285.139 226.935 284.799 C 226.8 284.447 226.422 284.287 226.057 284.427 C 225.645 284.585 225.417 284.434 225.417 284.003 C 225.417 283.608 225.07 283.333 224.57 283.333 C 224.105 283.333 223.616 283.052 223.484 282.708 C 223.352 282.365 222.977 282.083 222.651 282.083 C 222.324 282.083 221.949 281.802 221.817 281.458 C 221.685 281.115 221.243 280.833 220.833 280.833 C 220.424 280.833 219.982 280.555 219.852 280.215 C 219.722 279.875 219.351 279.699 219.029 279.822 C 218.666 279.961 218.352 279.7 218.205 279.136 C 218.044 278.523 217.754 278.307 217.317 278.474 C 216.91 278.631 216.667 278.495 216.667 278.112 C 216.667 277.775 216.287 277.5 215.82 277.5 C 215.355 277.5 214.866 277.219 214.734 276.875 C 214.602 276.531 214.278 276.25 214.014 276.25 C 213.75 276.25 213.295 275.868 213.003 275.4 C 212.711 274.933 212.32 274.646 212.133 274.761 C 211.945 274.877 211.554 274.526 211.262 273.981 C 210.939 273.376 210.208 272.892 209.388 272.738 C 208.507 272.573 207.882 272.13 207.573 271.451 C 207.297 270.846 206.752 270.417 206.259 270.417 C 205.763 270.417 205.417 270.141 205.417 269.747 C 205.417 269.326 205.187 269.166 204.798 269.315 C 204.433 269.455 203.997 269.212 203.735 268.723 C 203.491 268.267 203.112 268.004 202.893 268.14 C 202.674 268.275 202.39 268.114 202.262 267.781 C 201.913 266.871 199.796 266.605 198.457 267.303 C 197.816 267.638 197.057 267.913 196.771 267.914 C 196.484 267.916 196.25 268.18 196.25 268.501 C 196.25 268.822 195.688 269.281 195 269.521 C 194.313 269.761 193.75 270.233 193.75 270.571 C 193.75 270.909 193.094 271.402 192.292 271.667 C 191.49 271.931 190.833 272.396 190.833 272.7 C 190.833 273.003 190.271 273.448 189.583 273.688 C 188.896 273.927 188.333 274.399 188.333 274.737 C 188.333 275.08 187.781 275.472 187.08 275.626 C 186.39 275.777 185.629 276.27 185.388 276.72 C 185.147 277.171 184.492 277.714 183.933 277.926 C 183.374 278.139 182.917 278.584 182.917 278.915 C 182.917 279.246 182.354 279.641 181.667 279.792 C 180.979 279.943 180.417 280.311 180.417 280.611 C 180.417 281.14 178.046 282.5 177.125 282.5 C 176.873 282.5 176.667 282.791 176.667 283.147 C 176.667 283.502 176.123 283.983 175.458 284.215 C 174.794 284.446 174.16 284.979 174.051 285.399 C 173.936 285.838 173.3 286.283 172.551 286.447 C 171.812 286.609 171.25 286.998 171.25 287.346 C 171.25 287.684 170.688 288.156 170 288.396 C 169.313 288.635 168.75 289.082 168.75 289.389 C 168.75 289.695 168.112 290.177 167.331 290.459 C 166.551 290.741 165.994 291.183 166.092 291.44 C 166.191 291.697 165.611 292.147 164.803 292.439 C 163.995 292.732 163.333 293.199 163.333 293.477 C 163.333 293.756 162.771 294.196 162.083 294.456 C 161.396 294.715 160.833 295.225 160.833 295.589 C 160.833 295.952 160.543 296.25 160.188 296.25 C 159.834 296.25 159.121 296.706 158.605 297.263 C 158.089 297.82 157.16 298.403 156.541 298.558 C 155.837 298.735 155.417 299.123 155.417 299.595 C 155.417 300.09 155 300.442 154.209 300.616 C 153.538 300.763 152.913 301.221 152.801 301.646 C 152.686 302.088 152.052 302.532 151.301 302.697 C 150.419 302.891 150 303.23 150 303.75 C 150 304.264 149.587 304.608 148.75 304.792 C 148.063 304.943 147.5 305.31 147.5 305.608 C 147.5 305.905 146.938 306.382 146.25 306.667 C 145.563 306.951 145 307.417 145 307.702 C 145 307.987 144.156 308.542 143.125 308.936 C 142.094 309.33 141.25 309.895 141.25 310.192 C 141.25 310.489 140.688 310.965 140 311.25 C 139.313 311.535 138.75 312.018 138.75 312.323 C 138.75 312.629 138.094 313.002 137.292 313.152 C 136.27 313.344 135.833 313.649 135.833 314.172 C 135.833 314.627 135.345 315.089 134.583 315.354 C 133.896 315.594 133.333 316.066 133.333 316.404 C 133.333 316.752 132.771 317.141 132.033 317.303 C 131.281 317.468 130.648 317.912 130.532 318.354 C 130.421 318.779 129.796 319.237 129.124 319.384 C 128.459 319.53 127.917 319.925 127.917 320.263 C 127.917 320.6 127.253 321.153 126.442 321.492 C 125.63 321.831 125.079 322.291 125.217 322.513 C 125.549 323.052 124.068 323.581 120.878 324.064 C 118.786 324.381 118.217 324.347 118.044 323.897 C 117.925 323.587 117.493 323.333 117.083 323.333 C 116.674 323.333 116.232 323.055 116.102 322.715 C 115.972 322.375 115.593 322.202 115.262 322.329 C 114.89 322.471 114.553 322.228 114.385 321.697 C 114.234 321.222 113.849 320.833 113.53 320.833 C 112.91 320.833 112.253 318.856 111.819 315.686 C 111.637 314.363 111.703 313.75 112.027 313.75 C 112.301 313.75 112.5 313.05 112.5 312.083 C 112.5 311.167 112.688 310.417 112.917 310.417 C 113.146 310.417 113.333 309.771 113.333 308.983 C 113.333 308.194 113.521 307.433 113.75 307.292 C 113.979 307.15 114.167 306.389 114.167 305.6 C 114.167 304.812 114.354 304.167 114.583 304.167 C 114.813 304.167 115 303.417 115 302.5 C 115 301.329 115.178 300.833 115.599 300.833 C 116.05 300.833 116.14 300.475 115.962 299.382 C 115.793 298.338 115.895 297.867 116.328 297.701 C 116.722 297.55 116.891 296.985 116.818 296.063 C 116.746 295.14 116.915 294.577 117.311 294.425 C 117.735 294.263 117.859 293.755 117.727 292.722 C 117.583 291.599 117.689 291.25 118.172 291.25 C 118.586 291.25 118.726 290.997 118.575 290.521 C 118.448 290.12 118.623 289.255 118.964 288.598 C 119.305 287.942 119.583 286.864 119.583 286.202 C 119.583 285.541 119.771 285 120 285 C 120.229 285 120.417 284.25 120.417 283.333 C 120.417 282.417 120.604 281.667 120.833 281.667 C 121.063 281.667 121.25 280.917 121.25 280 C 121.25 279.083 121.438 278.333 121.667 278.333 C 121.896 278.333 122.083 277.677 122.083 276.875 C 122.083 276.073 122.271 275.417 122.5 275.417 C 122.729 275.417 122.917 274.687 122.917 273.795 C 122.917 272.802 123.139 272.087 123.49 271.952 C 123.864 271.809 123.988 271.338 123.848 270.603 C 123.701 269.834 123.844 269.356 124.296 269.103 C 124.77 268.838 124.906 268.317 124.774 267.282 C 124.629 266.154 124.736 265.833 125.256 265.833 C 125.762 265.833 125.86 265.578 125.66 264.783 C 125.486 264.09 125.586 263.659 125.953 263.518 C 126.286 263.39 126.522 262.607 126.542 261.564 C 126.559 260.606 126.782 259.753 127.037 259.668 C 127.292 259.583 127.5 258.967 127.5 258.299 C 127.5 257.63 127.688 257.083 127.917 257.083 C 128.146 257.083 128.333 256.146 128.333 255 C 128.333 253.854 128.521 252.917 128.75 252.917 C 128.979 252.917 129.167 252.448 129.167 251.875 C 129.167 251.302 129.354 250.833 129.583 250.833 C 129.813 250.833 130 250.083 130 249.167 C 130 248.25 130.188 247.5 130.417 247.5 C 130.646 247.5 130.833 246.864 130.833 246.086 C 130.833 245.195 131.071 244.581 131.478 244.425 C 131.97 244.236 132.058 243.829 131.849 242.714 C 131.638 241.591 131.714 241.25 132.173 241.25 C 132.609 241.25 132.72 240.89 132.579 239.932 C 132.441 238.992 132.597 238.46 133.123 238.075 C 133.663 237.68 133.795 237.203 133.614 236.297 C 133.465 235.555 133.55 234.997 133.825 234.906 C 134.078 234.821 134.355 234.105 134.441 233.314 C 134.527 232.522 134.782 231.813 135.007 231.736 C 135.232 231.66 135.417 230.863 135.417 229.965 C 135.417 229.068 135.604 228.333 135.833 228.333 C 136.063 228.333 136.25 227.677 136.25 226.875 C 136.25 226.073 136.438 225.417 136.667 225.417 C 137.213 225.417 137.203 223.086 136.652 222.056 C 136.415 221.613 135.959 221.25 135.638 221.25 C 135.318 221.25 134.94 220.885 134.798 220.438 C 134.643 219.949 134.302 219.718 133.941 219.856 C 133.609 219.983 133.225 219.787 133.084 219.418 C 132.943 219.051 132.56 218.75 132.234 218.75 C 131.908 218.75 131.533 218.469 131.401 218.125 C 131.269 217.781 130.806 217.5 130.372 217.5 C 129.938 217.5 129.583 217.219 129.583 216.875 C 129.583 216.528 129.213 216.25 128.75 216.25 C 128.287 216.25 127.917 215.972 127.917 215.625 C 127.917 215.278 127.546 215 127.083 215 C 126.62 215 126.25 214.722 126.25 214.375 C 126.25 214.031 125.895 213.75 125.461 213.75 C 125.027 213.75 124.557 213.449 124.416 213.082 C 124.275 212.713 123.891 212.517 123.559 212.644 C 123.205 212.78 122.86 212.56 122.715 212.105 C 122.558 211.61 122.199 211.407 121.71 211.535 C 121.207 211.666 120.878 211.465 120.741 210.942 C 120.627 210.507 119.872 209.836 119.062 209.452 C 118.253 209.068 117.484 208.475 117.353 208.134 C 117.222 207.793 116.862 207.611 116.552 207.73 C 116.232 207.853 115.747 207.492 115.424 206.89 C 115.114 206.309 114.604 205.833 114.292 205.833 C 113.979 205.833 113.616 205.552 113.484 205.208 C 113.352 204.865 112.977 204.583 112.651 204.583 C 112.324 204.583 111.949 204.302 111.817 203.958 C 111.685 203.615 111.223 203.333 110.789 203.333 C 110.355 203.333 110 203.052 110 202.708 C 110 202.365 109.645 202.083 109.211 202.083 C 108.777 202.083 108.315 201.802 108.183 201.458 C 108.051 201.115 107.676 200.833 107.349 200.833 C 107.023 200.833 106.64 200.533 106.499 200.165 C 106.358 199.796 105.974 199.6 105.643 199.727 C 105.278 199.867 104.938 199.628 104.775 199.115 C 104.621 198.63 104.268 198.365 103.942 198.49 C 103.62 198.614 103.265 198.358 103.118 197.895 C 102.976 197.449 102.498 197.083 102.055 197.083 C 101.612 197.083 101.25 196.896 101.25 196.667 C 101.25 196.438 100.963 196.25 100.612 196.25 C 100.261 196.25 99.866 195.969 99.734 195.625 C 99.602 195.281 99.139 195 98.705 195 C 98.272 195 97.917 194.719 97.917 194.375 C 97.917 194.031 97.562 193.75 97.128 193.75 C 96.694 193.75 96.231 193.469 96.099 193.125 C 95.967 192.781 95.588 192.5 95.256 192.5 C 94.925 192.5 94.413 191.958 94.12 191.295 C 93.812 190.599 93.358 190.177 93.047 190.296 C 92.75 190.41 92.392 190.202 92.251 189.835 C 92.11 189.467 91.727 189.167 91.401 189.167 C 91.074 189.167 90.699 188.885 90.567 188.542 C 90.435 188.198 89.993 187.917 89.583 187.917 C 89.174 187.917 88.731 187.635 88.599 187.292 C 88.467 186.948 87.979 186.667 87.513 186.667 C 87.047 186.667 86.667 186.392 86.667 186.055 C 86.667 185.699 86.42 185.537 86.079 185.668 C 85.723 185.805 85.381 185.543 85.208 185 C 85.026 184.427 84.7 184.193 84.299 184.347 C 83.896 184.501 83.593 184.281 83.448 183.728 C 83.312 183.206 82.995 182.958 82.638 183.094 C 82.315 183.218 81.945 183.041 81.815 182.701 C 81.684 182.361 81.244 182.083 80.837 182.083 C 80.43 182.083 79.999 181.708 79.879 181.248 C 79.733 180.691 79.44 180.498 78.997 180.668 C 78.56 180.836 78.333 180.694 78.333 180.253 C 78.333 179.874 77.991 179.583 77.545 179.583 C 77.111 179.583 76.648 179.302 76.516 178.958 C 76.384 178.615 76.009 178.333 75.683 178.333 C 75.356 178.333 74.981 178.052 74.849 177.708 C 74.717 177.365 74.229 177.083 73.763 177.083 C 73.288 177.083 72.917 176.809 72.917 176.458 C 72.917 176.115 72.572 175.833 72.15 175.833 C 71.729 175.833 71.17 175.365 70.909 174.792 C 70.648 174.219 70.149 173.75 69.801 173.75 C 69.452 173.75 69.167 173.469 69.167 173.125 C 69.167 172.775 68.795 172.5 68.32 172.5 C 67.855 172.5 67.366 172.219 67.234 171.875 C 67.102 171.531 66.727 171.25 66.401 171.25 C 66.074 171.25 65.699 170.969 65.567 170.625 C 65.435 170.281 64.973 170 64.539 170 C 64.105 170 63.75 169.725 63.75 169.388 C 63.75 169.017 63.506 168.87 63.129 169.015 C 62.774 169.151 62.397 168.966 62.251 168.585 C 62.11 168.217 61.639 167.917 61.205 167.917 C 60.772 167.917 60.417 167.642 60.417 167.306 C 60.417 166.971 60.057 166.503 59.617 166.268 C 58.175 165.497 56.884 159.794 58.049 159.346 C 58.509 159.17 58.652 158.703 58.533 157.768 C 58.386 156.623 58.533 156.365 59.598 155.894 C 60.277 155.593 60.833 155.1 60.833 154.798 C 60.833 153.699 73.557 151.097 74.16 152.073 C 74.376 152.422 75.692 152.383 79.196 151.925 C 82.524 151.491 84.098 151.436 84.466 151.743 C 84.941 152.136 88.606 151.729 91.354 150.977 C 91.834 150.845 92.083 151.012 92.083 151.463 C 92.083 151.988 92.352 152.097 93.229 151.925 C 97.443 151.101 100.967 150.792 101.233 151.222 C 101.439 151.556 102.709 151.496 105.811 151.005 C 109.206 150.467 110.17 150.434 110.423 150.844 C 110.677 151.254 111.728 151.212 115.427 150.642 C 118.979 150.095 120.184 150.039 120.414 150.412 C 120.645 150.787 121.55 150.76 124.213 150.299 C 127.199 149.783 127.777 149.78 128.179 150.276 C 128.581 150.771 129.278 150.752 132.903 150.15 C 135.845 149.661 137.241 149.58 137.432 149.886 C 137.613 150.175 138.427 150.214 139.792 149.998 C 144.221 149.295 146.416 149.178 146.695 149.63 C 146.892 149.948 148.296 149.865 151.454 149.347 C 154.999 148.765 156.1 148.716 156.733 149.112 C 157.635 149.675 158.333 149.415 158.333 148.517 C 158.333 148.187 158.615 147.917 158.958 147.917 C 159.347 147.917 159.583 147.523 159.583 146.875 C 159.583 146.302 159.789 145.833 160.04 145.833 C 160.33 145.833 160.444 145.071 160.353 143.75 C 160.251 142.284 160.363 141.666 160.729 141.666 C 161.016 141.667 161.25 141.198 161.25 140.625 C 161.25 140.048 161.492 139.583 161.791 139.583 C 162.164 139.583 162.28 139.131 162.163 138.129 C 162.046 137.129 162.18 136.603 162.592 136.445 C 162.967 136.301 163.173 135.678 163.143 134.774 C 163.114 133.903 163.293 133.333 163.596 133.333 C 163.916 133.333 164.055 132.792 163.979 131.841 C 163.902 130.874 164.061 130.271 164.43 130.129 C 164.757 130.004 165 129.308 165 128.497 C 165 127.72 165.188 127.083 165.417 127.083 C 165.646 127.083 165.833 126.438 165.833 125.65 C 165.833 124.861 166.021 124.1 166.25 123.958 C 166.479 123.817 166.667 123.243 166.667 122.684 C 166.667 122.124 166.854 121.667 167.083 121.667 C 167.313 121.667 167.5 121.048 167.5 120.292 C 167.5 119.535 167.716 118.7 167.981 118.436 C 168.245 118.172 168.445 117.384 168.425 116.686 C 168.401 115.845 168.591 115.417 168.986 115.417 C 169.389 115.417 169.583 114.95 169.583 113.983 C 169.583 113.194 169.771 112.433 170 112.292 C 170.229 112.15 170.417 111.389 170.417 110.6 C 170.417 109.812 170.604 109.167 170.833 109.167 C 171.063 109.167 171.25 108.521 171.25 107.733 C 171.25 106.944 171.438 106.183 171.667 106.042 C 171.896 105.9 172.083 105.159 172.083 104.395 C 172.083 103.517 172.324 102.913 172.737 102.755 C 173.187 102.582 173.303 102.228 173.109 101.617 C 172.947 101.107 173.029 100.605 173.299 100.438 C 173.559 100.277 173.852 99.507 173.951 98.725 C 174.05 97.943 174.326 97.238 174.565 97.159 C 174.804 97.079 175 96.478 175 95.823 C 175 95.168 175.188 94.517 175.417 94.375 C 175.646 94.233 175.833 93.472 175.833 92.684 C 175.833 91.895 176.021 91.25 176.25 91.25 C 176.479 91.25 176.667 90.588 176.667 89.779 C 176.667 88.874 176.901 88.217 177.274 88.074 C 177.705 87.909 177.808 87.476 177.628 86.576 C 177.449 85.685 177.559 85.209 177.999 84.962 C 178.342 84.77 178.639 84.016 178.66 83.285 C 178.681 82.554 178.921 81.818 179.195 81.649 C 179.48 81.473 179.611 80.797 179.504 80.062 C 179.383 79.241 179.513 78.706 179.866 78.571 C 180.169 78.455 180.417 77.979 180.417 77.513 C 180.417 77.048 180.604 76.667 180.833 76.667 C 181.063 76.667 181.25 75.932 181.25 75.035 C 181.25 74.137 181.449 73.337 181.692 73.256 C 181.935 73.175 182.151 72.512 182.171 71.783 C 182.192 71.054 182.467 70.359 182.781 70.238 C 183.175 70.087 183.266 69.67 183.074 68.903 C 182.869 68.088 182.992 67.642 183.531 67.248 C 184.044 66.873 184.212 66.329 184.083 65.454 C 183.966 64.656 184.099 64.122 184.45 63.987 C 184.762 63.868 185 63.14 185 62.305 C 185 61.495 185.188 60.833 185.417 60.833 C 185.646 60.833 185.833 60.365 185.833 59.792 C 185.833 59.153 186.07 58.75 186.445 58.75 C 186.792 58.75 186.962 58.503 186.838 58.179 C 186.717 57.865 186.911 57.315 187.268 56.958 C 187.625 56.602 187.917 56.121 187.917 55.891 C 187.917 55.661 188.292 55.354 188.75 55.208 C 189.208 55.063 189.583 54.682 189.583 54.363 C 189.583 53.85 190.567 53.46 193.542 52.793 C 194.512 52.575 195.871 52.851 196.438 53.38 Z M 220.321 322.185 C 220.603 322.091 220.833 322.311 220.833 322.674 C 220.833 322.828 220.799 322.97 220.743 323.083 C 220.366 322.76 220.021 322.419 219.714 322.058 C 219.7 322.042 219.687 322.026 219.673 322.009 C 219.919 322.166 220.161 322.238 220.321 322.185 Z" stroke="none" fill="#000" fill-rule="evenodd" transform="translate(30,0)"/>
    <path id="path-1" d="M 226.05 52.95 C 226.267 53.154 226.763 53.32 227.151 53.32 C 227.539 53.32 227.969 53.613 228.106 53.971 C 228.244 54.33 228.549 54.504 228.784 54.358 C 229.02 54.212 229.493 54.763 229.835 55.582 C 230.177 56.4 230.715 57.07 231.03 57.07 C 231.417 57.07 231.913 58.433 232.549 61.237 C 233.138 63.833 233.693 65.403 234.023 65.403 C 234.523 65.403 235.177 67.226 236.303 71.758 C 236.574 72.85 237.037 73.737 237.335 73.737 C 237.642 73.737 238.066 74.595 238.313 75.716 C 239.245 79.944 240.373 83.385 240.984 83.863 C 241.335 84.137 242.128 86.471 242.746 89.049 C 243.446 91.966 244.07 93.737 244.399 93.737 C 244.704 93.737 245.223 94.924 245.628 96.549 C 246.948 101.852 247.583 103.719 248.033 103.624 C 248.411 103.544 249.344 106.634 250.615 112.174 C 250.76 112.804 251.114 113.32 251.402 113.32 C 251.714 113.32 252.412 115.093 253.124 117.695 C 253.783 120.101 254.543 122.07 254.813 122.07 C 255.098 122.07 255.794 124.169 256.47 127.07 C 257.153 130.002 257.84 132.07 258.131 132.07 C 258.633 132.07 259.516 134.572 260.483 138.737 C 260.776 139.997 261.321 141.31 261.694 141.653 C 262.066 141.997 262.698 143.356 263.096 144.674 C 263.913 147.375 263.961 147.393 268.107 146.627 C 269.899 146.295 270.654 146.308 271.097 146.675 C 271.552 147.053 272.475 147.052 275.086 146.67 C 277.742 146.282 278.55 146.284 278.795 146.68 C 279.04 147.076 279.85 147.07 282.529 146.653 C 284.881 146.287 286.034 146.257 286.218 146.556 C 286.404 146.855 287.825 146.829 290.797 146.472 C 294.087 146.077 295.151 146.07 295.294 146.444 C 295.436 146.814 296.357 146.785 299.055 146.329 C 301.91 145.846 302.694 145.83 302.953 146.248 C 303.207 146.659 304.025 146.677 306.752 146.328 C 309.163 146.021 310.31 146.018 310.496 146.319 C 310.681 146.618 311.896 146.586 314.39 146.215 C 316.578 145.889 318.125 145.828 318.293 146.06 C 318.72 146.652 319.891 146.639 323.523 146 C 326.001 145.564 326.936 145.536 327.155 145.889 C 327.37 146.238 328.375 146.254 330.926 145.95 C 333.49 145.645 334.48 145.662 334.693 146.016 C 334.909 146.374 335.956 146.351 338.859 145.923 C 341.707 145.503 342.935 145.473 343.483 145.808 C 343.893 146.059 344.362 146.187 344.525 146.093 C 345.283 145.652 351.01 145.386 351.254 145.781 C 351.433 146.07 352.443 146.054 354.394 145.73 C 356.593 145.366 357.309 145.37 357.434 145.745 C 357.524 146.016 358.245 146.237 359.035 146.237 C 359.951 146.237 360.562 146.472 360.721 146.886 C 360.857 147.243 361.237 147.432 361.564 147.306 C 361.954 147.157 362.308 147.507 362.593 148.324 C 362.831 149.009 363.26 149.57 363.545 149.57 C 363.83 149.57 364.281 150.295 364.546 151.181 C 365.139 153.159 365.177 155.82 364.612 155.82 C 364.383 155.82 364.195 156.456 364.195 157.234 C 364.195 158.147 363.959 158.738 363.527 158.904 C 363.16 159.045 362.962 159.429 363.088 159.757 C 363.243 160.161 362.854 160.506 361.881 160.827 C 361.088 161.089 360.445 161.583 360.445 161.93 C 360.445 162.276 359.883 162.771 359.195 163.031 C 358.508 163.29 357.945 163.72 357.945 163.986 C 357.945 164.252 357.383 164.702 356.695 164.987 C 356.008 165.271 355.445 165.745 355.445 166.038 C 355.445 166.332 354.883 166.768 354.195 167.008 C 353.508 167.247 352.945 167.707 352.945 168.03 C 352.945 168.352 352.336 168.796 351.591 169.015 C 350.734 169.267 350.257 169.664 350.291 170.095 C 350.326 170.533 349.9 170.874 349.095 171.05 C 348.369 171.21 347.758 171.656 347.638 172.114 C 347.524 172.548 347.179 172.903 346.869 172.903 C 346.56 172.903 345.732 173.466 345.029 174.153 C 344.325 174.841 343.475 175.403 343.139 175.403 C 342.803 175.403 342.529 175.751 342.529 176.176 C 342.529 176.687 342.069 177.088 341.175 177.357 C 340.43 177.581 339.866 177.981 339.923 178.245 C 339.979 178.51 339.37 179.001 338.569 179.335 C 337.768 179.67 337.112 180.22 337.112 180.557 C 337.112 180.9 336.56 181.292 335.862 181.445 C 335.025 181.629 334.612 181.973 334.612 182.487 C 334.612 183 334.199 183.345 333.362 183.528 C 332.663 183.682 332.112 184.073 332.112 184.416 C 332.112 184.754 331.568 185.22 330.904 185.451 C 330.239 185.683 329.601 186.236 329.484 186.68 C 329.368 187.123 328.975 187.487 328.609 187.487 C 328.244 187.487 327.945 187.752 327.945 188.077 C 327.945 188.402 327.118 188.984 326.108 189.369 C 325.038 189.778 324.184 190.402 324.064 190.862 C 323.95 191.297 323.538 191.653 323.148 191.653 C 322.704 191.653 322.525 191.876 322.669 192.25 C 322.825 192.658 322.504 192.934 321.657 193.12 C 320.975 193.27 320.125 193.838 319.769 194.382 C 319.412 194.926 318.763 195.485 318.325 195.623 C 317.887 195.762 317.529 196.118 317.529 196.413 C 317.529 196.708 316.919 197.129 316.175 197.348 C 315.317 197.601 314.84 197.997 314.875 198.428 C 314.909 198.866 314.483 199.207 313.678 199.384 C 312.972 199.539 312.341 199.99 312.228 200.421 C 312.118 200.841 311.485 201.374 310.82 201.605 C 310.156 201.837 309.612 202.303 309.612 202.64 C 309.612 202.983 309.061 203.375 308.362 203.528 C 307.525 203.712 307.112 204.056 307.112 204.57 C 307.112 205.084 306.699 205.428 305.862 205.612 C 305.175 205.763 304.612 206.15 304.612 206.473 C 304.612 206.795 303.953 207.334 303.147 207.671 C 302.342 208.007 301.733 208.51 301.793 208.788 C 301.854 209.066 301.294 209.476 300.55 209.7 C 299.805 209.924 299.195 210.357 299.195 210.661 C 299.195 210.966 298.656 211.494 297.996 211.836 C 297.336 212.177 296.693 212.726 296.566 213.057 C 296.439 213.388 295.771 213.782 295.081 213.934 C 294.329 214.099 293.905 214.415 294.023 214.723 C 294.134 215.012 293.566 215.549 292.727 215.949 C 291.906 216.341 291.34 216.832 291.469 217.04 C 291.598 217.249 291.03 217.642 290.207 217.913 C 288.984 218.317 288.748 218.571 288.917 219.301 C 289.031 219.793 289.363 221.3 289.656 222.651 C 290.008 224.274 290.421 225.167 290.876 225.286 C 291.384 225.419 291.87 226.844 292.736 230.747 C 293.469 234.053 294.176 236.262 294.626 236.653 C 295.038 237.011 295.831 239.236 296.484 241.862 C 297.11 244.383 297.968 246.823 298.389 247.284 C 298.845 247.783 299.62 250.192 300.3 253.222 C 300.949 256.116 301.65 258.32 301.922 258.32 C 302.41 258.32 303.527 261.807 304.892 267.588 C 305.323 269.414 305.873 270.816 306.158 270.818 C 306.7 270.82 306.976 271.701 308.411 278.008 C 308.98 280.51 309.537 282.07 309.861 282.07 C 310.398 282.07 311.104 284.138 312.372 289.426 C 312.804 291.228 313.272 292.335 313.554 292.227 C 313.849 292.114 314.521 294.196 315.384 297.892 C 316.357 302.063 316.919 303.737 317.347 303.737 C 317.704 303.737 317.945 304.147 317.945 304.754 C 317.945 305.313 318.101 305.867 318.292 305.985 C 318.828 306.316 319.763 312.132 319.329 312.433 C 319.121 312.577 318.912 313.251 318.862 313.93 C 318.813 314.609 318.493 315.322 318.151 315.513 C 317.809 315.705 317.529 316.113 317.529 316.421 C 317.529 316.729 317.247 317.089 316.904 317.221 C 316.56 317.353 316.279 317.729 316.279 318.058 C 316.279 318.79 314.354 319.495 311.409 319.841 C 309.88 320.021 309.195 319.955 309.195 319.627 C 309.195 319.367 308.584 319.153 307.837 319.153 C 306.922 319.153 306.306 318.876 305.949 318.304 C 305.657 317.837 305.256 317.554 305.059 317.676 C 304.861 317.799 304.592 317.618 304.46 317.276 C 304.329 316.934 303.927 316.653 303.567 316.653 C 303.207 316.653 302.178 315.926 301.281 315.038 C 300.383 314.149 299.56 313.511 299.451 313.62 C 299.342 313.729 299.007 313.425 298.707 312.944 C 298.407 312.463 297.832 312.07 297.428 312.07 C 297.025 312.07 296.695 311.769 296.695 311.4 C 296.695 310.969 296.467 310.818 296.055 310.977 C 295.69 311.117 295.312 310.956 295.177 310.605 C 295.046 310.265 294.585 309.987 294.151 309.987 C 293.717 309.987 293.362 309.705 293.362 309.362 C 293.362 309.011 292.99 308.737 292.516 308.737 C 292.05 308.737 291.561 308.455 291.429 308.112 C 291.297 307.768 290.922 307.487 290.596 307.487 C 290.27 307.487 289.895 307.205 289.763 306.862 C 289.631 306.518 289.168 306.237 288.734 306.237 C 288.3 306.237 287.945 306.049 287.945 305.82 C 287.945 305.591 287.658 305.403 287.307 305.403 C 286.956 305.403 286.561 305.122 286.429 304.778 C 286.297 304.435 285.835 304.153 285.401 304.153 C 284.967 304.153 284.612 303.872 284.612 303.528 C 284.612 303.181 284.242 302.903 283.779 302.903 C 283.32 302.903 282.945 302.711 282.945 302.476 C 282.945 302.242 282.477 301.871 281.904 301.653 C 281.331 301.436 280.862 301.065 280.862 300.83 C 280.862 300.595 280.487 300.403 280.029 300.403 C 279.541 300.403 279.195 300.126 279.195 299.734 C 279.195 299.292 278.969 299.151 278.532 299.319 C 278.087 299.489 277.795 299.294 277.647 298.727 C 277.489 298.123 277.201 297.951 276.644 298.128 C 276.106 298.299 275.862 298.172 275.862 297.723 C 275.862 297.348 275.508 297.07 275.029 297.07 C 274.566 297.07 274.195 296.792 274.195 296.445 C 274.195 296.095 273.824 295.82 273.349 295.82 C 272.883 295.82 272.395 295.539 272.263 295.195 C 272.131 294.851 271.756 294.57 271.429 294.57 C 271.103 294.57 270.728 294.289 270.596 293.945 C 270.464 293.601 270.001 293.32 269.567 293.32 C 269.134 293.32 268.779 293.039 268.779 292.695 C 268.779 292.348 268.408 292.07 267.945 292.07 C 267.487 292.07 267.112 291.883 267.112 291.653 C 267.112 291.424 266.737 291.237 266.279 291.237 C 265.816 291.237 265.445 290.959 265.445 290.612 C 265.445 290.264 265.075 289.987 264.612 289.987 C 264.149 289.987 263.779 289.709 263.779 289.362 C 263.779 289.018 263.424 288.737 262.99 288.737 C 262.556 288.737 262.093 288.455 261.961 288.112 C 261.829 287.768 261.341 287.487 260.875 287.487 C 260.4 287.487 260.029 287.212 260.029 286.862 C 260.029 286.518 259.674 286.237 259.24 286.237 C 258.806 286.237 258.343 285.955 258.211 285.612 C 258.079 285.268 257.704 284.987 257.378 284.987 C 257.052 284.987 256.678 284.709 256.547 284.369 C 256.412 284.017 256.034 283.857 255.669 283.997 C 255.257 284.155 255.029 284.004 255.029 283.573 C 255.029 283.178 254.682 282.903 254.182 282.903 C 253.717 282.903 253.228 282.622 253.096 282.278 C 252.964 281.935 252.589 281.653 252.263 281.653 C 251.936 281.653 251.561 281.372 251.429 281.028 C 251.297 280.685 250.855 280.403 250.445 280.403 C 250.036 280.403 249.594 280.125 249.464 279.785 C 249.334 279.445 248.963 279.269 248.641 279.392 C 248.278 279.531 247.964 279.27 247.817 278.706 C 247.656 278.093 247.366 277.877 246.929 278.044 C 246.522 278.201 246.279 278.065 246.279 277.682 C 246.279 277.345 245.899 277.07 245.432 277.07 C 244.967 277.07 244.478 276.789 244.346 276.445 C 244.214 276.101 243.89 275.82 243.626 275.82 C 243.362 275.82 242.907 275.438 242.615 274.97 C 242.323 274.503 241.932 274.216 241.745 274.331 C 241.557 274.447 241.166 274.096 240.874 273.551 C 240.551 272.946 239.82 272.462 239 272.308 C 238.119 272.143 237.494 271.7 237.185 271.021 C 236.909 270.416 236.364 269.987 235.871 269.987 C 235.375 269.987 235.029 269.711 235.029 269.317 C 235.029 268.896 234.799 268.736 234.41 268.885 C 234.045 269.025 233.609 268.782 233.347 268.293 C 233.103 267.837 232.724 267.574 232.505 267.71 C 232.286 267.845 232.002 267.684 231.874 267.351 C 231.525 266.441 229.408 266.175 228.069 266.873 C 227.428 267.208 226.669 267.483 226.383 267.484 C 226.096 267.486 225.862 267.75 225.862 268.071 C 225.862 268.392 225.3 268.851 224.612 269.091 C 223.925 269.331 223.362 269.803 223.362 270.141 C 223.362 270.479 222.706 270.972 221.904 271.237 C 221.102 271.501 220.445 271.966 220.445 272.27 C 220.445 272.573 219.883 273.018 219.195 273.258 C 218.508 273.497 217.945 273.969 217.945 274.307 C 217.945 274.65 217.393 275.042 216.692 275.196 C 216.002 275.347 215.241 275.84 215 276.29 C 214.759 276.741 214.104 277.284 213.545 277.496 C 212.986 277.709 212.529 278.154 212.529 278.485 C 212.529 278.816 211.966 279.211 211.279 279.362 C 210.591 279.513 210.029 279.881 210.029 280.181 C 210.029 280.71 207.658 282.07 206.737 282.07 C 206.485 282.07 206.279 282.361 206.279 282.717 C 206.279 283.072 205.735 283.553 205.07 283.785 C 204.406 284.016 203.772 284.549 203.663 284.969 C 203.548 285.408 202.912 285.853 202.163 286.017 C 201.424 286.179 200.862 286.568 200.862 286.916 C 200.862 287.254 200.3 287.726 199.612 287.966 C 198.925 288.205 198.362 288.652 198.362 288.959 C 198.362 289.265 197.724 289.747 196.943 290.029 C 196.163 290.311 195.606 290.753 195.704 291.01 C 195.803 291.267 195.223 291.717 194.415 292.009 C 193.607 292.302 192.945 292.769 192.945 293.047 C 192.945 293.326 192.383 293.766 191.695 294.026 C 191.008 294.285 190.445 294.795 190.445 295.159 C 190.445 295.522 190.155 295.82 189.8 295.82 C 189.446 295.82 188.733 296.276 188.217 296.833 C 187.701 297.39 186.772 297.973 186.153 298.128 C 185.449 298.305 185.029 298.693 185.029 299.165 C 185.029 299.66 184.612 300.012 183.821 300.186 C 183.15 300.333 182.525 300.791 182.413 301.216 C 182.298 301.658 181.664 302.102 180.913 302.267 C 180.031 302.461 179.612 302.8 179.612 303.32 C 179.612 303.834 179.199 304.178 178.362 304.362 C 177.675 304.513 177.112 304.88 177.112 305.178 C 177.112 305.475 176.55 305.952 175.862 306.237 C 175.175 306.521 174.612 306.987 174.612 307.272 C 174.612 307.557 173.768 308.112 172.737 308.506 C 171.706 308.9 170.862 309.465 170.862 309.762 C 170.862 310.059 170.3 310.535 169.612 310.82 C 168.925 311.105 168.362 311.588 168.362 311.893 C 168.362 312.199 167.706 312.572 166.904 312.722 C 165.882 312.914 165.445 313.219 165.445 313.742 C 165.445 314.197 164.957 314.659 164.195 314.924 C 163.508 315.164 162.945 315.636 162.945 315.974 C 162.945 316.322 162.383 316.711 161.645 316.873 C 160.893 317.038 160.26 317.482 160.144 317.924 C 160.033 318.349 159.408 318.807 158.736 318.954 C 158.071 319.1 157.529 319.495 157.529 319.833 C 157.529 320.17 156.865 320.723 156.054 321.062 C 155.242 321.401 154.691 321.861 154.829 322.083 C 155.161 322.622 153.68 323.151 150.49 323.634 C 148.398 323.951 147.829 323.917 147.656 323.467 C 147.537 323.157 147.105 322.903 146.695 322.903 C 146.286 322.903 145.844 322.625 145.714 322.285 C 145.584 321.945 145.205 321.772 144.874 321.899 C 144.502 322.041 144.165 321.798 143.997 321.267 C 143.846 320.792 143.461 320.403 143.142 320.403 C 142.522 320.403 141.865 318.426 141.431 315.256 C 141.249 313.933 141.315 313.32 141.639 313.32 C 141.913 313.32 142.112 312.62 142.112 311.653 C 142.112 310.737 142.3 309.987 142.529 309.987 C 142.758 309.987 142.945 309.341 142.945 308.553 C 142.945 307.764 143.133 307.003 143.362 306.862 C 143.591 306.72 143.779 305.959 143.779 305.17 C 143.779 304.382 143.966 303.737 144.195 303.737 C 144.425 303.737 144.612 302.987 144.612 302.07 C 144.612 300.899 144.79 300.403 145.211 300.403 C 145.662 300.403 145.752 300.045 145.574 298.952 C 145.405 297.908 145.507 297.437 145.94 297.271 C 146.334 297.12 146.503 296.555 146.43 295.633 C 146.358 294.71 146.527 294.147 146.923 293.995 C 147.347 293.833 147.471 293.325 147.339 292.292 C 147.195 291.169 147.301 290.82 147.784 290.82 C 148.198 290.82 148.338 290.567 148.187 290.091 C 148.06 289.69 148.235 288.825 148.576 288.168 C 148.917 287.512 149.195 286.434 149.195 285.772 C 149.195 285.111 149.383 284.57 149.612 284.57 C 149.841 284.57 150.029 283.82 150.029 282.903 C 150.029 281.987 150.216 281.237 150.445 281.237 C 150.675 281.237 150.862 280.487 150.862 279.57 C 150.862 278.653 151.05 277.903 151.279 277.903 C 151.508 277.903 151.695 277.247 151.695 276.445 C 151.695 275.643 151.883 274.987 152.112 274.987 C 152.341 274.987 152.529 274.257 152.529 273.365 C 152.529 272.372 152.751 271.657 153.102 271.522 C 153.476 271.379 153.6 270.908 153.46 270.173 C 153.313 269.404 153.456 268.926 153.908 268.673 C 154.382 268.408 154.518 267.887 154.386 266.852 C 154.241 265.724 154.348 265.403 154.868 265.403 C 155.374 265.403 155.472 265.148 155.272 264.353 C 155.098 263.66 155.198 263.229 155.565 263.088 C 155.898 262.96 156.134 262.177 156.154 261.134 C 156.171 260.176 156.394 259.323 156.649 259.238 C 156.904 259.153 157.112 258.537 157.112 257.869 C 157.112 257.2 157.3 256.653 157.529 256.653 C 157.758 256.653 157.945 255.716 157.945 254.57 C 157.945 253.424 158.133 252.487 158.362 252.487 C 158.591 252.487 158.779 252.018 158.779 251.445 C 158.779 250.872 158.966 250.403 159.195 250.403 C 159.425 250.403 159.612 249.653 159.612 248.737 C 159.612 247.82 159.8 247.07 160.029 247.07 C 160.258 247.07 160.445 246.434 160.445 245.656 C 160.445 244.765 160.683 244.151 161.09 243.995 C 161.582 243.806 161.67 243.399 161.461 242.284 C 161.25 241.161 161.326 240.82 161.785 240.82 C 162.221 240.82 162.332 240.46 162.191 239.502 C 162.053 238.562 162.209 238.03 162.735 237.645 C 163.275 237.25 163.407 236.773 163.226 235.867 C 163.077 235.125 163.162 234.567 163.437 234.476 C 163.69 234.391 163.967 233.675 164.053 232.884 C 164.139 232.092 164.394 231.383 164.619 231.306 C 164.844 231.23 165.029 230.433 165.029 229.535 C 165.029 228.638 165.216 227.903 165.445 227.903 C 165.675 227.903 165.862 227.247 165.862 226.445 C 165.862 225.643 166.05 224.987 166.279 224.987 C 166.825 224.987 166.815 222.656 166.264 221.626 C 166.027 221.183 165.571 220.82 165.25 220.82 C 164.93 220.82 164.552 220.455 164.41 220.008 C 164.255 219.519 163.914 219.288 163.553 219.426 C 163.221 219.553 162.837 219.357 162.696 218.988 C 162.555 218.621 162.172 218.32 161.846 218.32 C 161.52 218.32 161.145 218.039 161.013 217.695 C 160.881 217.351 160.418 217.07 159.984 217.07 C 159.55 217.07 159.195 216.789 159.195 216.445 C 159.195 216.098 158.825 215.82 158.362 215.82 C 157.899 215.82 157.529 215.542 157.529 215.195 C 157.529 214.848 157.158 214.57 156.695 214.57 C 156.232 214.57 155.862 214.292 155.862 213.945 C 155.862 213.601 155.507 213.32 155.073 213.32 C 154.639 213.32 154.169 213.019 154.028 212.652 C 153.887 212.283 153.503 212.087 153.171 212.214 C 152.817 212.35 152.472 212.13 152.327 211.675 C 152.17 211.18 151.811 210.977 151.322 211.105 C 150.819 211.236 150.49 211.035 150.353 210.512 C 150.239 210.077 149.484 209.406 148.674 209.022 C 147.865 208.638 147.096 208.045 146.965 207.704 C 146.834 207.363 146.474 207.181 146.164 207.3 C 145.844 207.423 145.359 207.062 145.036 206.46 C 144.726 205.879 144.216 205.403 143.904 205.403 C 143.591 205.403 143.228 205.122 143.096 204.778 C 142.964 204.435 142.589 204.153 142.263 204.153 C 141.936 204.153 141.561 203.872 141.429 203.528 C 141.297 203.185 140.835 202.903 140.401 202.903 C 139.967 202.903 139.612 202.622 139.612 202.278 C 139.612 201.935 139.257 201.653 138.823 201.653 C 138.389 201.653 137.927 201.372 137.795 201.028 C 137.663 200.685 137.288 200.403 136.961 200.403 C 136.635 200.403 136.252 200.103 136.111 199.735 C 135.97 199.366 135.586 199.17 135.255 199.297 C 134.89 199.437 134.55 199.198 134.387 198.685 C 134.233 198.2 133.88 197.935 133.554 198.06 C 133.232 198.184 132.877 197.928 132.73 197.465 C 132.588 197.019 132.11 196.653 131.667 196.653 C 131.224 196.653 130.862 196.466 130.862 196.237 C 130.862 196.008 130.575 195.82 130.224 195.82 C 129.873 195.82 129.478 195.539 129.346 195.195 C 129.214 194.851 128.751 194.57 128.317 194.57 C 127.884 194.57 127.529 194.289 127.529 193.945 C 127.529 193.601 127.174 193.32 126.74 193.32 C 126.306 193.32 125.843 193.039 125.711 192.695 C 125.579 192.351 125.2 192.07 124.868 192.07 C 124.537 192.07 124.025 191.528 123.732 190.865 C 123.424 190.169 122.97 189.747 122.659 189.866 C 122.362 189.98 122.004 189.772 121.863 189.405 C 121.722 189.037 121.339 188.737 121.013 188.737 C 120.686 188.737 120.311 188.455 120.179 188.112 C 120.047 187.768 119.605 187.487 119.195 187.487 C 118.786 187.487 118.343 187.205 118.211 186.862 C 118.079 186.518 117.591 186.237 117.125 186.237 C 116.659 186.237 116.279 185.962 116.279 185.625 C 116.279 185.269 116.032 185.107 115.691 185.238 C 115.335 185.375 114.993 185.113 114.82 184.57 C 114.638 183.997 114.312 183.763 113.911 183.917 C 113.508 184.071 113.205 183.851 113.06 183.298 C 112.924 182.776 112.607 182.528 112.25 182.664 C 111.927 182.788 111.557 182.611 111.427 182.271 C 111.296 181.931 110.856 181.653 110.449 181.653 C 110.042 181.653 109.611 181.278 109.491 180.818 C 109.345 180.261 109.052 180.068 108.609 180.238 C 108.172 180.406 107.945 180.264 107.945 179.823 C 107.945 179.444 107.603 179.153 107.157 179.153 C 106.723 179.153 106.26 178.872 106.128 178.528 C 105.996 178.185 105.621 177.903 105.295 177.903 C 104.968 177.903 104.593 177.622 104.461 177.278 C 104.329 176.935 103.841 176.653 103.375 176.653 C 102.9 176.653 102.529 176.379 102.529 176.028 C 102.529 175.685 102.184 175.403 101.762 175.403 C 101.341 175.403 100.782 174.935 100.521 174.362 C 100.26 173.789 99.761 173.32 99.413 173.32 C 99.064 173.32 98.779 173.039 98.779 172.695 C 98.779 172.345 98.407 172.07 97.932 172.07 C 97.467 172.07 96.978 171.789 96.846 171.445 C 96.714 171.101 96.339 170.82 96.013 170.82 C 95.686 170.82 95.311 170.539 95.179 170.195 C 95.047 169.851 94.585 169.57 94.151 169.57 C 93.717 169.57 93.362 169.295 93.362 168.958 C 93.362 168.587 93.118 168.44 92.741 168.585 C 92.386 168.721 92.009 168.536 91.863 168.155 C 91.722 167.787 91.251 167.487 90.817 167.487 C 90.384 167.487 90.029 167.212 90.029 166.876 C 90.029 166.541 89.669 166.073 89.229 165.838 C 87.787 165.067 86.496 159.364 87.661 158.916 C 88.121 158.74 88.264 158.273 88.145 157.338 C 87.998 156.193 88.145 155.935 89.21 155.464 C 89.889 155.163 90.445 154.67 90.445 154.368 C 90.445 153.269 103.169 150.667 103.772 151.643 C 103.988 151.992 105.304 151.953 108.808 151.495 C 112.136 151.061 113.71 151.006 114.078 151.313 C 114.553 151.706 118.218 151.299 120.966 150.547 C 121.446 150.415 121.695 150.582 121.695 151.033 C 121.695 151.558 121.964 151.667 122.841 151.495 C 127.055 150.671 130.579 150.362 130.845 150.792 C 131.051 151.126 132.321 151.066 135.423 150.575 C 138.818 150.037 139.782 150.004 140.035 150.414 C 140.289 150.824 141.34 150.782 145.039 150.212 C 148.591 149.665 149.796 149.609 150.026 149.982 C 150.257 150.357 151.162 150.33 153.825 149.869 C 156.811 149.353 157.389 149.35 157.791 149.846 C 158.193 150.341 158.89 150.322 162.515 149.72 C 165.457 149.231 166.853 149.15 167.044 149.456 C 167.225 149.745 168.039 149.784 169.404 149.568 C 173.833 148.865 176.028 148.748 176.307 149.2 C 176.504 149.518 177.908 149.435 181.066 148.917 C 184.611 148.335 185.712 148.286 186.345 148.682 C 187.247 149.245 187.945 148.985 187.945 148.087 C 187.945 147.757 188.227 147.487 188.57 147.487 C 188.959 147.487 189.195 147.093 189.195 146.445 C 189.195 145.872 189.401 145.403 189.652 145.403 C 189.942 145.403 190.056 144.641 189.965 143.32 C 189.863 141.854 189.975 141.236 190.341 141.236 C 190.628 141.237 190.862 140.768 190.862 140.195 C 190.862 139.618 191.104 139.153 191.403 139.153 C 191.776 139.153 191.892 138.701 191.775 137.699 C 191.658 136.699 191.792 136.173 192.204 136.015 C 192.579 135.871 192.785 135.248 192.755 134.344 C 192.726 133.473 192.905 132.903 193.208 132.903 C 193.528 132.903 193.667 132.362 193.591 131.411 C 193.514 130.444 193.673 129.841 194.042 129.699 C 194.369 129.574 194.612 128.878 194.612 128.067 C 194.612 127.29 194.8 126.653 195.029 126.653 C 195.258 126.653 195.445 126.008 195.445 125.22 C 195.445 124.431 195.633 123.67 195.862 123.528 C 196.091 123.387 196.279 122.813 196.279 122.254 C 196.279 121.694 196.466 121.237 196.695 121.237 C 196.925 121.237 197.112 120.618 197.112 119.862 C 197.112 119.105 197.328 118.27 197.593 118.006 C 197.857 117.742 198.057 116.954 198.037 116.256 C 198.013 115.415 198.203 114.987 198.598 114.987 C 199.001 114.987 199.195 114.52 199.195 113.553 C 199.195 112.764 199.383 112.003 199.612 111.862 C 199.841 111.72 200.029 110.959 200.029 110.17 C 200.029 109.382 200.216 108.737 200.445 108.737 C 200.675 108.737 200.862 108.091 200.862 107.303 C 200.862 106.514 201.05 105.753 201.279 105.612 C 201.508 105.47 201.695 104.729 201.695 103.965 C 201.695 103.087 201.936 102.483 202.349 102.325 C 202.799 102.152 202.915 101.798 202.721 101.187 C 202.559 100.677 202.641 100.175 202.911 100.008 C 203.171 99.847 203.464 99.077 203.563 98.295 C 203.662 97.513 203.938 96.808 204.177 96.729 C 204.416 96.649 204.612 96.048 204.612 95.393 C 204.612 94.738 204.8 94.087 205.029 93.945 C 205.258 93.803 205.445 93.042 205.445 92.254 C 205.445 91.465 205.633 90.82 205.862 90.82 C 206.091 90.82 206.279 90.158 206.279 89.349 C 206.279 88.444 206.513 87.787 206.886 87.644 C 207.317 87.479 207.42 87.046 207.24 86.146 C 207.061 85.255 207.171 84.779 207.611 84.532 C 207.954 84.34 208.251 83.586 208.272 82.855 C 208.293 82.124 208.533 81.388 208.807 81.219 C 209.092 81.043 209.223 80.367 209.116 79.632 C 208.995 78.811 209.125 78.276 209.478 78.141 C 209.781 78.025 210.029 77.549 210.029 77.083 C 210.029 76.618 210.216 76.237 210.445 76.237 C 210.675 76.237 210.862 75.502 210.862 74.605 C 210.862 73.707 211.061 72.907 211.304 72.826 C 211.547 72.745 211.763 72.082 211.783 71.353 C 211.804 70.624 212.079 69.929 212.393 69.808 C 212.787 69.657 212.878 69.24 212.686 68.473 C 212.481 67.658 212.604 67.212 213.143 66.818 C 213.656 66.443 213.824 65.899 213.695 65.024 C 213.578 64.226 213.711 63.692 214.062 63.557 C 214.374 63.438 214.612 62.71 214.612 61.875 C 214.612 61.065 214.8 60.403 215.029 60.403 C 215.258 60.403 215.445 59.935 215.445 59.362 C 215.445 58.723 215.682 58.32 216.057 58.32 C 216.404 58.32 216.574 58.073 216.45 57.749 C 216.329 57.435 216.523 56.885 216.88 56.528 C 217.237 56.172 217.529 55.691 217.529 55.461 C 217.529 55.231 217.904 54.924 218.362 54.778 C 218.82 54.633 219.195 54.252 219.195 53.933 C 219.195 53.42 220.179 53.03 223.154 52.363 C 224.124 52.145 225.483 52.421 226.05 52.95 Z M 249.933 321.755 C 250.215 321.661 250.445 321.881 250.445 322.244 C 250.445 322.398 250.411 322.54 250.355 322.653 C 249.978 322.33 249.633 321.989 249.326 321.628 C 249.312 321.612 249.299 321.596 249.285 321.579 C 249.531 321.736 249.773 321.808 249.933 321.755 Z" stroke="none" fill="#000" fill-rule="evenodd" style="filter: url(#gaussian-blur-filter-0);"/>
  </g>
</svg>